<svg aria-hidden="true" style="position: absolute; width: 0; height: 0; overflow: hidden;" version="1.1" xmlns="http://www.w3.org/2000/svg" xmlns:xlink="http://www.w3.org/1999/xlink">
<defs>
<symbol id="icon-burger-menu" viewBox="0 0 46 32">
<path stroke-linejoin="round" stroke-linecap="round" stroke-miterlimit="4" stroke-width="3.5556" d="M1.778 1.778h41.333M1.778 15.556h41.333M1.778 29.333h41.333"></path>
</symbol>
<symbol id="icon-play" viewBox="0 0 28 32">
<path d="M26.444 18.748c2.074-1.22 2.074-4.274 0-5.496l-5.388-3.172-6.416 5.92 6.414 5.92 5.39-3.172zM19.254 22.98l-6.088-5.62-13.106 12.1c0.402 2.058 2.72 3.22 4.606 2.11l14.588-8.59zM0 26.792v-21.586l11.692 10.794-11.692 10.792zM0.060 2.54l13.106 12.1 6.088-5.62-14.588-8.59c-1.886-1.112-4.204 0.050-4.606 2.11z"></path>
</symbol>
<symbol id="icon-down" viewBox="0 0 56 32">
<path stroke-linejoin="round" stroke-linecap="round" stroke-miterlimit="4" stroke-width="8" d="M52 4l-24 24-24-24"></path>
</symbol>
<symbol id="icon-up" viewBox="0 0 56 32">
<path stroke-linejoin="round" stroke-linecap="round" stroke-miterlimit="4" stroke-width="8" d="M52 28l-24-24-24 24"></path>
</symbol>
<symbol id="icon-close" viewBox="0 0 32 32">
<path stroke-linejoin="round" stroke-linecap="round" stroke-miterlimit="4" stroke-width="2.4" d="M1.2 30.133l14.467-14.467M15.667 15.667l14.467-14.467M15.667 15.667l-14.467-14.467M15.667 15.667l14.467 14.467"></path>
</symbol>
</defs>
</svg>
